<?xml version="1.0" encoding="UTF-8"?>
    <svg width="800" height="1150" version="1.1" xmlns="http://www.w3.org/2000/svg">
    <defs>
        <linearGradient id="grad-green" x1="0%" y1="0%" x2="100%" y2="0%">
            <stop offset="0%" stop-color="#16a34a"/>
            <stop offset="100%" stop-color="#4ade80"/>
        </linearGradient>
        <linearGradient id="grad-yellow" x1="0%" y1="0%" x2="100%" y2="0%">
            <stop offset="0%" stop-color="#ca8a04"/>
            <stop offset="100%" stop-color="#fde047"/>
        </linearGradient>
        <linearGradient id="grad-red" x1="0%" y1="0%" x2="100%" y2="0%">
            <stop offset="0%" stop-color="#dc2626"/>
            <stop offset="100%" stop-color="#f87171"/>
        </linearGradient>
        <linearGradient id="shimmer" x1="0%" y1="0%" x2="100%" y2="0%">
            <stop offset="0%" stop-color="rgba(255,255,255,0)"/>
            <stop offset="50%" stop-color="rgba(255,255,255,0.4)"/>
            <stop offset="100%" stop-color="rgba(255,255,255,0)"/>
        </linearGradient>
        <filter id="glow" x="-20%" y="-20%" width="140%" height="140%">
            <feGaussianBlur stdDeviation="1.5" result="blur" />
            <feComposite in="SourceGraphic" in2="blur" operator="over" />
        </filter>
    </defs>
    <style>
        .bg-rect { fill: #0f172a; }
        .title { font: bold 22px 'Segoe UI', Arial, sans-serif; fill: #f8fafc; }
        .row { font: bold 15px 'Segoe UI', Arial, sans-serif; fill: #38bdf8; filter: url(#glow); }
        .score { font: bold 14px 'Segoe UI', Arial, sans-serif; fill: #f1f5f9; }
        @keyframes shimmer-anim {
            0% { transform: translateX(-100%); }
            100% { transform: translateX(200%); }
        }
        .shimmer-rect {
            animation: shimmer-anim 2.5s infinite linear;
        }
    </style>
    <rect width="100%" height="100%" class="bg-rect"/>
    <text x="400" y="45" text-anchor="middle" class="title">Channel Performance Overview</text>
        <rect x="150" y="80" width="500" height="30" fill="#1e293b" rx="6"/>
        <clipPath id="clip-0">
            <rect x="150" y="80" width="499.15" height="30" rx="6"/>
        </clipPath>
        <rect x="150" y="80" width="499.15" height="30" fill="url(#grad-green)" rx="6"/>
        <g clip-path="url(#clip-0)">
            <rect x="150" y="80" width="100%" height="30" fill="url(#shimmer)" class="shimmer-rect"/>
        </g>
        <text x="135" y="100" text-anchor="end" class="row">sub.html</text>
        <text x="665" y="100" text-anchor="start" class="score">99.8% (S:100%)</text>
        <rect x="150" y="130" width="500" height="30" fill="#1e293b" rx="6"/>
        <clipPath id="clip-1">
            <rect x="150" y="130" width="498.25" height="30" rx="6"/>
        </clipPath>
        <rect x="150" y="130" width="498.25" height="30" fill="url(#grad-green)" rx="6"/>
        <g clip-path="url(#clip-1)">
            <rect x="150" y="130" width="100%" height="30" fill="url(#shimmer)" class="shimmer-rect"/>
        </g>
        <text x="135" y="150" text-anchor="end" class="row">DirectVPN</text>
        <text x="665" y="150" text-anchor="start" class="score">99.7% (S:100%)</text>
        <rect x="150" y="180" width="500" height="30" fill="#1e293b" rx="6"/>
        <clipPath id="clip-2">
            <rect x="150" y="180" width="498.05" height="30" rx="6"/>
        </clipPath>
        <rect x="150" y="180" width="498.05" height="30" fill="url(#grad-green)" rx="6"/>
        <g clip-path="url(#clip-2)">
            <rect x="150" y="180" width="100%" height="30" fill="url(#shimmer)" class="shimmer-rect"/>
        </g>
        <text x="135" y="200" text-anchor="end" class="row">persianvpnhub</text>
        <text x="665" y="200" text-anchor="start" class="score">99.6% (S:100%)</text>
        <rect x="150" y="230" width="500" height="30" fill="#1e293b" rx="6"/>
        <clipPath id="clip-3">
            <rect x="150" y="230" width="496.04999999999995" height="30" rx="6"/>
        </clipPath>
        <rect x="150" y="230" width="496.04999999999995" height="30" fill="url(#grad-green)" rx="6"/>
        <g clip-path="url(#clip-3)">
            <rect x="150" y="230" width="100%" height="30" fill="url(#shimmer)" class="shimmer-rect"/>
        </g>
        <text x="135" y="250" text-anchor="end" class="row">vless_universal.txt</text>
        <text x="665" y="250" text-anchor="start" class="score">99.2% (S:100%)</text>
        <rect x="150" y="280" width="500" height="30" fill="#1e293b" rx="6"/>
        <clipPath id="clip-4">
            <rect x="150" y="280" width="495.85" height="30" rx="6"/>
        </clipPath>
        <rect x="150" y="280" width="495.85" height="30" fill="url(#grad-green)" rx="6"/>
        <g clip-path="url(#clip-4)">
            <rect x="150" y="280" width="100%" height="30" fill="url(#shimmer)" class="shimmer-rect"/>
        </g>
        <text x="135" y="300" text-anchor="end" class="row">PrivateVPNs</text>
        <text x="665" y="300" text-anchor="start" class="score">99.2% (S:100%)</text>
        <rect x="150" y="330" width="500" height="30" fill="#1e293b" rx="6"/>
        <clipPath id="clip-5">
            <rect x="150" y="330" width="486.75" height="30" rx="6"/>
        </clipPath>
        <rect x="150" y="330" width="486.75" height="30" fill="url(#grad-green)" rx="6"/>
        <g clip-path="url(#clip-5)">
            <rect x="150" y="330" width="100%" height="30" fill="url(#shimmer)" class="shimmer-rect"/>
        </g>
        <text x="135" y="350" text-anchor="end" class="row">Sub.txt</text>
        <text x="665" y="350" text-anchor="start" class="score">97.3% (S:100%)</text>
        <rect x="150" y="380" width="500" height="30" fill="#1e293b" rx="6"/>
        <clipPath id="clip-6">
            <rect x="150" y="380" width="483.45" height="30" rx="6"/>
        </clipPath>
        <rect x="150" y="380" width="483.45" height="30" fill="url(#grad-green)" rx="6"/>
        <g clip-path="url(#clip-6)">
            <rect x="150" y="380" width="100%" height="30" fill="url(#shimmer)" class="shimmer-rect"/>
        </g>
        <text x="135" y="400" text-anchor="end" class="row">Fast.txt</text>
        <text x="665" y="400" text-anchor="start" class="score">96.7% (S:100%)</text>
        <rect x="150" y="430" width="500" height="30" fill="#1e293b" rx="6"/>
        <clipPath id="clip-7">
            <rect x="150" y="430" width="471.5" height="30" rx="6"/>
        </clipPath>
        <rect x="150" y="430" width="471.5" height="30" fill="url(#grad-green)" rx="6"/>
        <g clip-path="url(#clip-7)">
            <rect x="150" y="430" width="100%" height="30" fill="url(#shimmer)" class="shimmer-rect"/>
        </g>
        <text x="135" y="450" text-anchor="end" class="row">proxies.txt</text>
        <text x="665" y="450" text-anchor="start" class="score">94.3% (S:100%)</text>
        <rect x="150" y="480" width="500" height="30" fill="#1e293b" rx="6"/>
        <clipPath id="clip-8">
            <rect x="150" y="480" width="470.05" height="30" rx="6"/>
        </clipPath>
        <rect x="150" y="480" width="470.05" height="30" fill="url(#grad-green)" rx="6"/>
        <g clip-path="url(#clip-8)">
            <rect x="150" y="480" width="100%" height="30" fill="url(#shimmer)" class="shimmer-rect"/>
        </g>
        <text x="135" y="500" text-anchor="end" class="row">Sub.mahsa.xsparvin</text>
        <text x="665" y="500" text-anchor="start" class="score">94.0% (S:100%)</text>
        <rect x="150" y="530" width="500" height="30" fill="#1e293b" rx="6"/>
        <clipPath id="clip-9">
            <rect x="150" y="530" width="426.5" height="30" rx="6"/>
        </clipPath>
        <rect x="150" y="530" width="426.5" height="30" fill="url(#grad-green)" rx="6"/>
        <g clip-path="url(#clip-9)">
            <rect x="150" y="530" width="100%" height="30" fill="url(#shimmer)" class="shimmer-rect"/>
        </g>
        <text x="135" y="550" text-anchor="end" class="row">prrofile_purple</text>
        <text x="665" y="550" text-anchor="start" class="score">85.3% (S:100%)</text>
        <rect x="150" y="580" width="500" height="30" fill="#1e293b" rx="6"/>
        <clipPath id="clip-10">
            <rect x="150" y="580" width="422.9" height="30" rx="6"/>
        </clipPath>
        <rect x="150" y="580" width="422.9" height="30" fill="url(#grad-green)" rx="6"/>
        <g clip-path="url(#clip-10)">
            <rect x="150" y="580" width="100%" height="30" fill="url(#shimmer)" class="shimmer-rect"/>
        </g>
        <text x="135" y="600" text-anchor="end" class="row">purkow.txt</text>
        <text x="665" y="600" text-anchor="start" class="score">84.6% (S:100%)</text>
        <rect x="150" y="630" width="500" height="30" fill="#1e293b" rx="6"/>
        <clipPath id="clip-11">
            <rect x="150" y="630" width="391.2" height="30" rx="6"/>
        </clipPath>
        <rect x="150" y="630" width="391.2" height="30" fill="url(#grad-green)" rx="6"/>
        <g clip-path="url(#clip-11)">
            <rect x="150" y="630" width="100%" height="30" fill="url(#shimmer)" class="shimmer-rect"/>
        </g>
        <text x="135" y="650" text-anchor="end" class="row">V2RayRootFree</text>
        <text x="665" y="650" text-anchor="start" class="score">78.2% (S:100%)</text>
        <rect x="150" y="680" width="500" height="30" fill="#1e293b" rx="6"/>
        <clipPath id="clip-12">
            <rect x="150" y="680" width="75.0" height="30" rx="6"/>
        </clipPath>
        <rect x="150" y="680" width="75.0" height="30" fill="url(#grad-red)" rx="6"/>
        <g clip-path="url(#clip-12)">
            <rect x="150" y="680" width="100%" height="30" fill="url(#shimmer)" class="shimmer-rect"/>
        </g>
        <text x="135" y="700" text-anchor="end" class="row">VZezaKC</text>
        <text x="665" y="700" text-anchor="start" class="score">15.0% (S:0%)</text>
        <rect x="150" y="730" width="500" height="30" fill="#1e293b" rx="6"/>
        <clipPath id="clip-13">
            <rect x="150" y="730" width="75.0" height="30" rx="6"/>
        </clipPath>
        <rect x="150" y="730" width="75.0" height="30" fill="url(#grad-red)" rx="6"/>
        <g clip-path="url(#clip-13)">
            <rect x="150" y="730" width="100%" height="30" fill="url(#shimmer)" class="shimmer-rect"/>
        </g>
        <text x="135" y="750" text-anchor="end" class="row">sub?target=clash&url=https%3A%2F%2Fcache.ravelloh.top%3Fuuid%3Dc6ae4a76-eb0b-d5f3-6ac1-04a649ec62ba&insert=false&config=https%3A%2F%2Fraw.githubusercontent.com%2FACL4SSR%2FACL4SSR%2Fmaster%2FClash%2Fconfig%2FACL4SSR_Online_Full_NoAuto.ini&emoji=true&list=false&xudp=false&udp=false&tfo=false&expand=true&scv=false&fdn=false&new_name=true</text>
        <text x="665" y="750" text-anchor="start" class="score">15.0% (S:0%)</text>
        <rect x="150" y="780" width="500" height="30" fill="#1e293b" rx="6"/>
        <clipPath id="clip-14">
            <rect x="150" y="780" width="75.0" height="30" rx="6"/>
        </clipPath>
        <rect x="150" y="780" width="75.0" height="30" fill="url(#grad-red)" rx="6"/>
        <g clip-path="url(#clip-14)">
            <rect x="150" y="780" width="100%" height="30" fill="url(#shimmer)" class="shimmer-rect"/>
        </g>
        <text x="135" y="800" text-anchor="end" class="row">c.yaml</text>
        <text x="665" y="800" text-anchor="start" class="score">15.0% (S:0%)</text>
        <rect x="150" y="830" width="500" height="30" fill="#1e293b" rx="6"/>
        <clipPath id="clip-15">
            <rect x="150" y="830" width="75.0" height="30" rx="6"/>
        </clipPath>
        <rect x="150" y="830" width="75.0" height="30" fill="url(#grad-red)" rx="6"/>
        <g clip-path="url(#clip-15)">
            <rect x="150" y="830" width="100%" height="30" fill="url(#shimmer)" class="shimmer-rect"/>
        </g>
        <text x="135" y="850" text-anchor="end" class="row">clash</text>
        <text x="665" y="850" text-anchor="start" class="score">15.0% (S:0%)</text>
        <rect x="150" y="880" width="500" height="30" fill="#1e293b" rx="6"/>
        <clipPath id="clip-16">
            <rect x="150" y="880" width="75.0" height="30" rx="6"/>
        </clipPath>
        <rect x="150" y="880" width="75.0" height="30" fill="url(#grad-red)" rx="6"/>
        <g clip-path="url(#clip-16)">
            <rect x="150" y="880" width="100%" height="30" fill="url(#shimmer)" class="shimmer-rect"/>
        </g>
        <text x="135" y="900" text-anchor="end" class="row">fJgpEwS</text>
        <text x="665" y="900" text-anchor="start" class="score">15.0% (S:0%)</text>
        <rect x="150" y="930" width="500" height="30" fill="#1e293b" rx="6"/>
        <clipPath id="clip-17">
            <rect x="150" y="930" width="75.0" height="30" rx="6"/>
        </clipPath>
        <rect x="150" y="930" width="75.0" height="30" fill="url(#grad-red)" rx="6"/>
        <g clip-path="url(#clip-17)">
            <rect x="150" y="930" width="100%" height="30" fill="url(#shimmer)" class="shimmer-rect"/>
        </g>
        <text x="135" y="950" text-anchor="end" class="row">c.yaml</text>
        <text x="665" y="950" text-anchor="start" class="score">15.0% (S:0%)</text>
        <rect x="150" y="980" width="500" height="30" fill="#1e293b" rx="6"/>
        <clipPath id="clip-18">
            <rect x="150" y="980" width="75.0" height="30" rx="6"/>
        </clipPath>
        <rect x="150" y="980" width="75.0" height="30" fill="url(#grad-red)" rx="6"/>
        <g clip-path="url(#clip-18)">
            <rect x="150" y="980" width="100%" height="30" fill="url(#shimmer)" class="shimmer-rect"/>
        </g>
        <text x="135" y="1000" text-anchor="end" class="row">v2rayfree</text>
        <text x="665" y="1000" text-anchor="start" class="score">15.0% (S:0%)</text>
        <rect x="150" y="1030" width="500" height="30" fill="#1e293b" rx="6"/>
        <clipPath id="clip-19">
            <rect x="150" y="1030" width="75.0" height="30" rx="6"/>
        </clipPath>
        <rect x="150" y="1030" width="75.0" height="30" fill="url(#grad-red)" rx="6"/>
        <g clip-path="url(#clip-19)">
            <rect x="150" y="1030" width="100%" height="30" fill="url(#shimmer)" class="shimmer-rect"/>
        </g>
        <text x="135" y="1050" text-anchor="end" class="row">v2nodes</text>
        <text x="665" y="1050" text-anchor="start" class="score">15.0% (S:0%)</text>
        <rect x="150" y="1080" width="500" height="30" fill="#1e293b" rx="6"/>
        <clipPath id="clip-20">
            <rect x="150" y="1080" width="75.0" height="30" rx="6"/>
        </clipPath>
        <rect x="150" y="1080" width="75.0" height="30" fill="url(#grad-red)" rx="6"/>
        <g clip-path="url(#clip-20)">
            <rect x="150" y="1080" width="100%" height="30" fill="url(#shimmer)" class="shimmer-rect"/>
        </g>
        <text x="135" y="1100" text-anchor="end" class="row">xray_final.txt</text>
        <text x="665" y="1100" text-anchor="start" class="score">15.0% (S:0%)</text></svg>